<svg width="82" height="109" viewBox="0 0 82 109" fill="none" xmlns="http://www.w3.org/2000/svg">
<path d="M4.38743 109H77.3359C79.755 109 81.7233 107.032 81.7233 104.613V100.437C81.7233 99.5554 81.0086 98.8404 80.1265 98.8404C79.2445 98.8404 78.5298 99.5554 78.5298 100.437V104.613C78.5298 105.271 77.9942 105.807 77.3359 105.807H68.2862V91.7205C68.2862 90.8386 67.5714 90.1237 66.6894 90.1237C65.8074 90.1237 65.0927 90.8386 65.0927 91.7205V105.807H16.6306V91.7205C16.6306 90.8386 15.9159 90.1237 15.0339 90.1237C14.1518 90.1237 13.4371 90.8386 13.4371 91.7205V105.807H4.38743C3.72893 105.807 3.19349 105.271 3.19349 104.613V89.4822C3.19349 83.3273 7.55984 79.2906 10.503 78.0728L22.3738 73.4365C24.2164 76.7002 33.8904 93.8337 37.9216 100.973C39.2141 103.262 42.5085 103.264 43.8013 100.973C44.4261 99.866 58.38 75.1424 59.3259 73.4665C71.7175 78.2654 71.2412 78.0508 71.8967 78.3842C75.1984 80.1051 78.5298 84.2043 78.5298 89.4822V92.9857C78.5298 93.8675 79.2445 94.5825 80.1265 94.5825C81.0086 94.5825 81.7233 93.8675 81.7233 92.9857V89.4822C81.7233 82.4131 77.2249 77.5601 73.3587 75.545C72.4867 75.1013 73.8726 75.6734 50.9559 66.8002L50.9525 62.6295C54.6099 59.9525 57.143 55.8312 57.7089 51.1118C60.4766 50.8693 62.9526 49.2839 64.1857 46.8055C63.9928 49.1319 65.8274 51.2104 68.2517 51.2104H72.7598C75.4328 51.2104 77.3833 48.6848 76.7048 46.0979V46.0981L74.8535 39.0349C75.2524 38.3194 75.4807 37.4963 75.4807 36.6206C75.4807 34.4361 74.0645 32.577 72.1026 31.91V17.1661V17.1659C72.1024 15.7733 71.3293 14.5211 70.0845 13.8973H70.0843L43.6627 0.658976C41.9088 -0.219659 39.8147 -0.219659 38.0609 0.658976L11.6388 13.8973C10.3937 14.5211 9.6207 15.7735 9.6207 17.1661C9.6207 18.5587 10.3942 19.811 11.639 20.435L18.8224 24.0343V37.2617C18.8224 37.636 18.8595 38.0038 18.9267 38.3624C17.5618 39.8094 16.7682 41.6996 16.7682 43.5954C16.7682 47.441 19.8495 50.7589 24.0133 51.1135C24.5641 55.7484 27.0061 59.8939 30.7582 62.6105V66.7333C30.7499 66.7365 9.9952 74.8424 9.32733 75.1032C9.31839 75.1069 9.30945 75.1105 9.3005 75.1141C4.8211 76.9576 0 82.2401 0 89.482V104.612C0 107.032 1.96825 109 4.38743 109ZM35.2774 89.7946L31.307 82.7625C31.8397 83.0631 32.4848 83.2417 33.1435 83.2417C34.0583 83.2417 34.9193 82.9135 35.5985 82.3184L36.5197 83.2394L35.2774 89.7946ZM43.2213 74.1352C42.9377 74.4188 42.6801 74.7877 42.5188 75.1139H39.2226C39.064 74.793 38.806 74.4209 38.5201 74.1352L33.2274 68.8425C33.699 68.2952 33.9517 67.6049 33.9517 66.8359V64.4283C36.1982 65.3989 38.6031 65.8585 41.081 65.8585C43.4547 65.8585 45.7129 65.3593 47.7608 64.4651L47.7627 66.8491C47.7648 67.6075 48.0324 68.3122 48.4953 68.861L43.2213 74.1352ZM43.8485 80.0412L42.7789 81.1108H38.9069L37.865 80.0689L38.5199 79.4138C38.8558 79.0776 39.1207 78.6636 39.2801 78.3074H42.4608C42.6224 78.6682 42.8849 79.0776 43.2209 79.4138L43.8485 80.0412ZM41.0204 99.4034C40.9484 99.5296 40.7734 99.5294 40.7027 99.4034L37.7111 94.1049L39.5682 84.3043H42.1179L43.9839 94.1526L41.0204 99.4034ZM46.4171 89.841L45.1664 83.2396L46.114 82.292C46.7974 82.9037 47.6698 83.2417 48.5981 83.2417C49.2506 83.2417 49.8742 83.0708 50.4022 82.7804L46.4171 89.841ZM51.455 70.418L56.3167 72.3009C56.1452 72.6047 56.2148 72.4816 55.9868 72.8853L48.979 79.8933C48.7716 80.1006 48.4239 80.1004 48.2166 79.8933L45.4795 77.1562C45.2805 76.9572 45.2698 76.6029 45.4795 76.3936L51.455 70.418ZM57.8334 47.8802V43.4217C59.8017 42.5039 60.5434 42.0747 61.2158 41.3926C61.5683 42.0626 61.7619 42.8143 61.7619 43.5752C61.7619 45.7583 60.0263 47.517 57.8334 47.8802ZM72.76 48.0171H68.2519C67.6719 48.0171 67.2489 47.4704 67.396 46.9079L68.8618 41.3153C69.9259 41.6889 71.0843 41.6896 72.1499 41.3153L73.6157 46.9079C73.7634 47.4696 73.341 48.0171 72.76 48.0171ZM70.5061 34.8393C71.4882 34.8393 72.2874 35.6385 72.2874 36.6208C72.2874 37.6291 71.4162 38.4113 70.4916 38.4015C69.5919 38.3939 68.7245 37.644 68.7245 36.6208C68.7247 35.6385 69.5239 34.8393 70.5061 34.8393ZM68.9093 31.9102C66.9472 32.5773 65.5312 34.4361 65.5312 36.6208C65.5312 37.4965 65.7595 38.3196 66.1584 39.0351L64.9539 43.6308C64.9541 43.6123 64.9553 43.5937 64.9553 43.5754C64.9553 41.5912 64.1717 39.647 62.8251 38.195C62.8734 37.8895 62.9011 37.5783 62.9011 37.2619C62.9011 35.7695 62.9011 25.364 62.9011 24.0345L68.9095 21.0241V31.9102H68.9093ZM13.0695 17.5798C12.8585 17.474 12.8142 17.2964 12.8142 17.1661C12.8142 17.0358 12.8585 16.8581 13.0695 16.7525L39.4911 3.51417C40.3493 3.08432 41.374 3.08411 42.2322 3.51417L66.2928 15.5694H45.6799C45.009 13.55 43.1034 12.0891 40.8615 12.0891C38.0621 12.0891 35.7843 14.3667 35.7843 17.1661C35.7843 19.9655 38.0619 22.2431 40.8615 22.2431C43.1032 22.2431 45.0088 20.7822 45.6799 18.7629H66.2926C65.8402 18.9896 48.6892 27.5829 42.2322 30.8181C41.374 31.2481 40.3493 31.2481 39.4911 30.8181C38.1017 30.1221 14.0584 18.0752 13.0695 17.5798ZM42.7451 17.1661C42.7451 18.2046 41.9001 19.0496 40.8615 19.0496C39.8228 19.0496 38.9778 18.2046 38.9778 17.1661C38.9778 16.1276 39.8228 15.2826 40.8615 15.2826C41.9003 15.2826 42.7451 16.1276 42.7451 17.1661ZM23.8901 47.8841C21.6961 47.529 19.9616 45.7725 19.9616 43.5954C19.9616 42.8614 20.1771 42.1211 20.5682 41.453C21.0862 41.9604 21.5905 42.3487 23.8901 43.4215V47.8841ZM23.3659 39.5876C22.5488 39.1471 22.0159 38.2495 22.0159 37.2619V36.2725C26.7199 38.5638 31.7499 39.96 36.9942 40.4273C37.8684 40.5065 38.6482 39.8571 38.7266 38.9787C38.8047 38.1003 38.1562 37.3247 37.2778 37.2466C31.8995 36.7673 26.7657 35.2319 22.0159 32.685V25.6344L38.0606 33.6735C39.8015 34.5451 41.8932 34.5593 43.6624 33.6735L59.7072 25.6344V32.685C54.9576 35.2319 49.8235 36.7673 44.4453 37.2466C43.5668 37.3249 42.9184 38.1003 42.9965 38.9787C43.0748 39.8571 43.8528 40.5063 44.7289 40.4273C49.9734 39.96 55.0038 38.5636 59.7072 36.2723V37.2617C59.7072 38.2491 59.1762 39.146 58.3572 39.5874C52.8146 42.5639 46.7623 43.9936 40.8613 43.9936C34.8261 43.9938 28.7799 42.4988 23.3659 39.5876ZM27.0836 49.1065V44.751C31.5678 46.3968 36.2218 47.1873 40.8618 47.1873C45.4996 47.1873 50.1537 46.3976 54.64 44.751V49.1065C54.64 56.6051 48.521 62.6652 41.081 62.6652C32.6125 62.665 27.0836 56.0741 27.0836 49.1065ZM30.2347 70.3665L36.2616 76.3934C36.4664 76.5982 36.4637 76.954 36.2616 77.156L33.5246 79.8933C33.3172 80.1006 32.9696 80.1004 32.7622 79.8933L25.6989 72.8301L25.3789 72.2632L30.2347 70.3665Z" fill="#FFC104" fill-opacity="0.3"/>
</svg>
